# xmcd
#
# Track frame offsets:
#	150
#	14917
#	46377
#
# Disc length: 1033 seconds
#
# Revision: 1
# Processed by: cddbd v1.5.2PL0 Copyright (c) Steve Scherf et al.
# Submitted via: EasyCDDAExtractor 16.0.6.1
#
DISCID=23040703
DTITLE=Black Project - Everybody [CD-Maxi)
DYEAR=1999
DGENRE=House
TTITLE0=Everybody (Barracuda Radio Edit)
TTITLE1=Everybody (Barracuda Club)
TTITLE2=Ready Tonight (Vibe Mix)
EXTD=
EXTT0=
EXTT1=
EXTT2=
PLAYORDER=
